<svg xmlns="http://www.w3.org/2000/svg" width="32" height="32" viewBox="0 0 32 32">
  <g fill="none">
    <path d="M16,0 C7.163,0 0,7.163 0,16 C0,24.836 7.163,32 16,32 C24.837,32 32,24.836 32,16 C32,7.163 24.837,0 16,0 Z"/>
    <path fill="#FFFFFF" d="M13.69,24.903 L17.369,24.903 L17.369,15.999 L19.823,15.999 L20.148,12.931 L17.369,12.931 L17.373,11.395 C17.373,10.595 17.449,10.166 18.597,10.166 L20.131,10.166 L20.131,7.097 L17.676,7.097 C14.727,7.097 13.69,8.586 13.69,11.089 L13.69,12.931 L11.852,12.931 L11.852,16 L13.69,16 L13.69,24.903 L13.69,24.903 Z"/>
  </g>
</svg>
