<svg xmlns="http://www.w3.org/2000/svg" width="50" height="51" viewBox="0 0 50 51">
  <path fill="#FFF" d="M18.3,2 L22.9,7.7 C23.8,7.5 24.8,7.5 25.8,7.5 C26.9,7.5 28,7.6 29.1,7.8 L33.8,2.1 L36.6,3.3 L35.8,10.7 C37.5,11.9 39,13.4 40.1,15.1 L47.4,14.5 L48.5,17.4 L43,22 C43.4,24.1 43.4,26.2 43,28.3 L48.5,33 L47.3,35.8 L40.2,35 C38.9,36.8 37.4,38.4 35.6,39.6 L36.2,46.7 L33.3,48 L28.9,42.5 C27.8,42.7 26.8,42.8 25.7,42.8 C24.6,42.8 23.4,42.7 22.3,42.5 L17.8,47.8 L15,46.6 L15.7,39.7 C13.8,38.4 12.3,36.7 11.1,34.9 L4.2,35.5 L3,32.5 L8.5,28.1 C8.1,26 8.2,23.7 8.6,21.5 L3.2,16.9 L4.4,14.1 L11.5,14.9 C12.8,13.1 14.3,11.7 16.1,10.5 L15.5,3.2 L18.3,2 Z M26.1,33.5 C30.6,33.5 34.3,29.8 34.3,25.2 C34.3,20.6 30.6,16.9 26.1,16.9 C21.6,16.9 17.9,20.6 17.9,25.2 C17.8,29.8 21.5,33.5 26.1,33.5 Z M18.3,0 C18.1,0 17.8,0 17.6,0.1 L14.7,1.3 C13.9,1.6 13.4,2.5 13.5,3.3 L14,9.5 C12.7,10.4 11.6,11.5 10.6,12.8 L4.6,12.1 C4.5,12.1 4.5,12.1 4.4,12.1 C3.6,12.1 2.9,12.6 2.6,13.3 L1.4,16.1 C1.1,16.9 1.3,17.9 1.9,18.4 L6.4,22.3 C6.2,23.9 6.1,25.6 6.3,27.2 L1.7,31 C1,31.6 0.8,32.5 1.1,33.3 L2.2,36.2 C2.5,37 3.2,37.5 4.1,37.5 C4.2,37.5 4.2,37.5 4.3,37.5 L10.1,37 C11.1,38.4 12.3,39.6 13.6,40.6 L13,46.4 C12.9,47.3 13.4,48.1 14.2,48.5 L17,49.7 C17.3,49.8 17.5,49.9 17.8,49.9 C18.4,49.9 18.9,49.7 19.3,49.2 L23,44.7 C23.9,44.8 24.8,44.9 25.7,44.9 C26.5,44.9 27.3,44.9 28.1,44.8 L31.8,49.4 C32.2,49.9 32.8,50.2 33.4,50.2 C33.6,50.2 33.9,50.2 34.1,50.1 L37,48.9 C37.8,48.6 38.3,47.7 38.2,46.9 L37.7,41 C39,40 40.2,38.8 41.2,37.6 L47.1,38.2 C47.2,38.2 47.2,38.2 47.3,38.2 C48.1,38.2 48.8,37.7 49.1,37 L50.3,34.2 C50.6,33.4 50.4,32.4 49.8,31.9 L45.2,27.9 C45.4,26.3 45.4,24.8 45.2,23.2 L50,19.3 C50.7,18.7 50.9,17.8 50.6,17 L49.5,14.1 C49.2,13.3 48.5,12.8 47.6,12.8 C47.5,12.8 47.5,12.8 47.4,12.8 L41.2,13.3 C40.3,12.1 39.2,11 38,10 L38.7,3.8 C38.8,2.9 38.3,2.1 37.5,1.7 L34.7,0.5 C34.4,0.4 34.2,0.3 33.9,0.3 C33.3,0.3 32.8,0.6 32.4,1 L28.4,5.8 C27.6,5.7 26.7,5.6 25.9,5.6 C25.2,5.6 24.6,5.6 23.9,5.7 L20,0.8 C19.5,0.3 18.9,0 18.3,0 Z M26.1,31.5 C22.7,31.5 19.9,28.7 19.9,25.2 C19.9,21.7 22.7,18.9 26.1,18.9 C29.5,18.9 32.3,21.7 32.3,25.2 C32.3,28.7 29.5,31.5 26.1,31.5 Z" transform="translate(-1)"/>
</svg>
