<svg xmlns="http://www.w3.org/2000/svg" width="32" height="33" viewBox="0 0 32 33">
  <g fill="none">
    <path d="M16,0.995 C7.163,0.995 0,8.158 0,16.995 C0,25.831 7.163,32.995 16,32.995 C24.837,32.995 32,25.831 32,16.995 C32,8.158 24.837,0.995 16,0.995 Z"/>
    <g fill="#FFFFFF" transform="translate(6 8)">
      <path d="M12.209,0.177 L6.774,0.177 C4.288,0.177 1.947,1.922 1.947,4.103 C1.947,6.332 3.642,8.065 6.171,8.065 C6.347,8.065 6.518,8.025 6.686,8.013 C6.52,8.326 6.406,8.663 6.406,9.03 C6.406,9.65 6.738,10.144 7.159,10.554 C6.843,10.554 6.534,10.558 6.198,10.558 C3.118,10.559 0.748,12.519 0.748,14.553 C0.748,16.556 3.347,17.811 6.427,17.811 C9.939,17.811 11.878,15.817 11.878,13.814 C11.878,12.208 11.404,11.246 9.939,10.207 C9.437,9.853 8.479,8.99 8.479,8.482 C8.479,7.888 8.648,7.595 9.544,6.895 C10.46,6.179 11.11,5.325 11.11,4.152 C11.11,2.758 10.51,1.057 9.344,1.057 L11.328,1.057 L12.209,0.177 Z M10.385,13.467 C10.427,13.654 10.453,13.845 10.453,14.039 C10.453,15.658 9.408,16.923 6.415,16.923 C4.286,16.923 2.749,15.576 2.749,13.957 C2.749,12.371 4.656,11.049 6.786,11.073 C7.281,11.078 7.745,11.159 8.165,11.293 C9.321,12.098 10.15,12.552 10.385,13.467 Z M6.975,7.429 C5.546,7.388 4.187,5.831 3.941,3.955 C3.695,2.077 4.653,0.641 6.082,0.683 C7.51,0.727 8.87,2.233 9.116,4.109 C9.362,5.986 8.404,7.471 6.975,7.429 Z"/>
      <polygon points="16.618 7.224 16.618 4.579 14.854 4.579 14.854 7.224 12.209 7.224 12.209 8.988 14.854 8.988 14.854 11.633 16.618 11.633 16.618 8.988 19.263 8.988 19.263 7.224"/>
    </g>
  </g>
</svg>
