<svg xmlns="http://www.w3.org/2000/svg" width="98" height="65" viewBox="0 0 98 65"><path d="M36.99 38.387c.137 3.23 2.073 5.378 5.47 5.378 1.936 0 3.822-.867 4.571-2.6h7.529c-1.44 5.464-6.701 7.834-12.172 7.834-7.968 0-13.388-4.648-13.388-12.568 0-7.24 5.981-12.432 13.201-12.432 8.774 0 13.158 6.381 12.776 14.387h-17.987zm9.947-4.297c-.144-2.643-2.08-4.827-4.758-4.827-2.836 0-4.722 1.962-5.19 4.827h9.947zm37.019-10.09c7.645 0 13.043 5.421 13.043 12.525s-5.37 12.475-13.043 12.475c-7.674 0-12.957-5.371-12.957-12.475 0-7.104 5.319-12.525 12.957-12.525zm0 19.078c3.754 0 4.935-3.581 4.935-6.553s-1.188-6.603-4.935-6.603c-3.746 0-4.884 3.581-4.884 6.603s1.138 6.56 4.884 6.56v-.007zm-66.964-12.987h-4.943v10.554c0 1.927 1.128 2.343 2.874 2.343.654 0 1.365-.093 2.077-.093v5.868c-1.437.043-2.917.236-4.376.236-6.826 0-8.572-1.97-8.572-8.598v-10.311h-4.052v-5.159h4.045v-7.932h8.004v7.932h4.943v5.159zm10.007-7.31h-7.993v-5.781h7.993v5.781zm-8 2.168h8v24.051h-7.993l-.007-24.051zm51.986 5.141h-4.934v10.554c0 1.927 1.128 2.343 2.873 2.343.654 0 1.365-.093 2.076-.093v5.868c-1.436.043-2.916.236-4.374.236-6.823 0-8.568-1.97-8.568-8.598v-10.311h-4.058v-5.159h4.015v-7.932h8.037v7.932h4.941l-.007 5.159z" fill="#5ab3e7"/></svg>