<svg xmlns="http://www.w3.org/2000/svg" viewBox="0 0 98 65" width="98" height="65"><path d="m38.9 37.2c0.1 2.8 1.8 4.7 4.8 4.7 1.7 0 3.3-0.8 4-2.3l6.6 0c-1.3 4.8-5.9 6.9-10.7 6.9-7 0-11.7-4.1-11.7-11 0-6.3 5.2-10.9 11.6-10.9 7.7 0 11.5 5.6 11.2 12.6l-15.8 0zm8.7-3.8c-0.1-2.3-1.8-4.2-4.2-4.2-2.5 0-4.1 1.7-4.5 4.2l8.7 0zM80.1 24.6c6.7 0 11.4 4.8 11.4 11C91.5 41.8 86.8 46.5 80.1 46.5c-6.7 0-11.4-4.7-11.4-10.9 0-6.2 4.7-11 11.4-11zm0 16.7c3.3 0 4.3-3.1 4.3-5.7 0-2.6-1-5.8-4.3-5.8-3.3 0-4.3 3.1-4.3 5.8 0 2.6 1 5.7 4.3 5.7l0 0zm-58.7-11.4-4.3 0 0 9.2c0 1.7 1 2.1 2.5 2.1 0.6 0 1.2-0.1 1.8-0.1l0 5.1c-1.3 0-2.6 0.2-3.8 0.2-6 0-7.5-1.7-7.5-7.5l0-9-3.6 0 0-4.5 3.5 0 0-7 7 0 0 7 4.3 0 0 4.5zm8.8-6.4-7 0 0-5.1 7 0 0 5.1zm-7 1.9 7 0 0 21.1-7 0 0-21.1zm45.6 4.5-4.3 0 0 9.2c0 1.7 1 2.1 2.5 2.1 0.6 0 1.2-0.1 1.8-0.1l0 5.1c-1.3 0-2.6 0.2-3.8 0.2-6 0-7.5-1.7-7.5-7.5l0-9-3.6 0 0-4.5 3.5 0 0-7 7 0 0 7 4.3 0 0 4.5z" fill="#fff"/></svg>