<svg xmlns="http://www.w3.org/2000/svg" height="27" width="81" viewBox="0 0 81 27"><path d="m30.9 18c0.1 2.7 1.7 4.5 4.6 4.5 1.6 0 3.2-0.7 3.8-2.2h6.3c-1.2 4.6-5.6 6.6-10.2 6.6-6.7 0-11.2-3.9-11.2-10.6 0-6.1 5-10.5 11-10.5 7.3 0 11 5.4 10.7 12.1h-15zm8.3-3.6c-0.1-2.2-1.7-4.1-4-4.1-2.4 0-3.9 1.7-4.3 4.1h8.3zm30.9-8.5c6.4 0 10.9 4.6 10.9 10.6 0 6-4.5 10.5-10.9 10.5s-10.8-4.5-10.8-10.5c0-6 4.4-10.6 10.8-10.6zm4.1 10.6c0-2.5-1-5.6-4.1-5.6-3.1 0-4.1 3-4.1 5.6 0 2.5 1 5.5 4.1 5.5 3.1 0 4.1-3 4.1-5.5zm-60-5.4h-4.1v8.9c0 1.6 0.9 2 2.4 2 0.5 0 1.1-0.1 1.7-0.1v5c-1.2 0-2.4 0.2-3.7 0.2-5.7 0-7.2-1.7-7.2-7.3v-8.7h-3.4v-4.4h3.4v-6.7h6.7v6.7h4.1v4.4zm8.4-6.2h-6.7v-4.9h6.7zm0 1.8v20.3h-6.7l0-20.3zm32.6 4.3v8.9c0 1.6 0.9 2 2.4 2 0.5 0 1.1-0.1 1.7-0.1v5c-1.2 0-2.4 0.2-3.7 0.2-5.7 0-7.2-1.7-7.2-7.3v-8.7h-3.4v-4.4h3.4v-6.7h6.7v6.7h4.1l0 4.4z" fill="#5ab3e7"/></svg>